<?xml version="1.0" standalone="no"?>
<!DOCTYPE svg PUBLIC "-//W3C//DTD SVG 20010904//EN"
 "http://www.w3.org/TR/2001/REC-SVG-20010904/DTD/svg10.dtd">
<svg version="1.0" xmlns="http://www.w3.org/2000/svg"
 width="1024.000000pt" height="1024.000000pt" viewBox="0 0 1024.000000 1024.000000"
 preserveAspectRatio="xMidYMid meet">
<metadata>
Created by potrace 1.11, written by Peter Selinger 2001-2013
</metadata>
<g transform="translate(0.000000,1024.000000) scale(0.100000,-0.100000)"
fill="#000000" stroke="none">
<path d="M6955 10159 c-99 -44 -193 -86 -210 -93 -16 -8 -97 -44 -180 -81 -82
-37 -178 -80 -213 -96 -35 -16 -65 -29 -68 -29 -2 0 -43 -18 -90 -40 -47 -22
-87 -40 -89 -40 -2 0 -32 -13 -67 -29 -35 -16 -272 -122 -528 -236 -256 -114
-493 -220 -528 -236 -35 -16 -65 -29 -68 -29 -2 0 -43 -18 -90 -40 -47 -22
-88 -40 -90 -40 -2 0 -34 -14 -71 -31 -38 -17 -149 -67 -248 -111 -99 -44
-200 -89 -225 -100 -25 -11 -63 -28 -85 -38 -70 -31 -1110 -495 -1920 -855
-429 -191 -805 -358 -835 -372 -30 -14 -68 -31 -85 -38 -16 -8 -214 -96 -440
-195 -225 -100 -423 -188 -440 -195 -16 -8 -70 -32 -118 -54 -49 -23 -91 -41
-93 -41 -3 0 -43 -18 -89 -40 l-85 -39 0 -326 c0 -179 3 -325 6 -325 6 0 270
115 389 170 48 22 645 288 1340 597 55 24 114 50 130 58 33 15 293 131 1730
770 528 235 985 438 1015 452 30 14 71 32 90 40 19 9 53 24 75 34 l40 19 3
-707 c1 -388 1 -707 0 -709 -2 -1 -28 -5 -58 -8 -679 -77 -1299 -352 -1815
-806 -59 -52 -234 -228 -285 -286 -77 -88 -89 -103 -156 -192 -35 -48 -67 -91
-72 -97 -24 -32 -125 -192 -164 -260 -84 -149 -174 -342 -229 -494 -66 -180
-144 -496 -164 -660 -4 -30 -8 -63 -10 -74 -25 -127 -25 -693 0 -787 2 -8 6
-37 10 -65 10 -82 35 -214 61 -320 145 -582 437 -1102 856 -1525 470 -474
1057 -787 1713 -914 91 -17 155 -27 295 -43 86 -10 534 -10 635 0 134 13 156
16 270 38 61 12 121 23 134 25 46 9 237 63 317 89 549 184 1051 518 1427 949
34 39 65 73 68 76 12 12 138 181 185 250 286 421 477 931 539 1435 25 210 26
653 1 791 -2 10 -7 46 -11 79 -9 76 -60 326 -81 396 -75 248 -128 388 -216
569 -253 521 -648 973 -1133 1297 -339 226 -759 402 -1140 478 -120 24 -314
54 -352 55 l-23 0 0 843 0 844 198 88 c108 48 226 101 262 118 36 16 117 52
180 79 63 28 140 62 170 75 30 14 80 37 110 50 76 34 106 47 175 78 33 15 96
43 140 62 44 20 105 47 135 60 30 14 136 61 235 105 172 76 211 94 308 137 23
11 85 38 137 61 52 23 109 48 125 56 17 7 253 113 525 234 l495 220 -740 0
-740 0 -180 -81z m-1530 -3242 c17 -3 68 -11 115 -17 302 -39 621 -135 905
-271 103 -49 304 -164 379 -217 28 -19 64 -45 81 -56 252 -176 541 -469 728
-739 123 -177 281 -465 312 -567 4 -14 11 -29 15 -35 24 -30 147 -438 165
-548 3 -18 10 -57 15 -87 19 -117 23 -144 36 -315 19 -246 0 -535 -52 -798 -8
-42 -18 -89 -20 -104 -3 -15 -7 -30 -10 -35 -3 -5 -8 -21 -10 -36 -10 -52 -76
-256 -119 -362 -46 -114 -165 -357 -196 -402 -10 -14 -19 -28 -19 -31 0 -14
-218 -329 -239 -347 -4 -3 -36 -40 -71 -83 -90 -107 -274 -285 -405 -390 -280
-225 -589 -394 -940 -515 -85 -30 -332 -95 -405 -107 -30 -5 -73 -11 -120 -19
-274 -43 -731 -39 -954 9 -12 2 -37 7 -57 9 -20 3 -42 8 -50 10 -8 3 -25 7
-39 10 -102 17 -318 82 -470 141 -558 216 -1064 620 -1412 1130 -42 61 -83
124 -92 140 -9 17 -26 46 -38 65 -108 177 -256 542 -308 760 -6 25 -13 54 -15
65 -5 20 -34 171 -41 210 -8 53 -24 189 -30 265 -11 143 -5 452 10 550 3 14 7
52 11 85 4 33 13 89 20 125 8 37 16 77 18 90 28 147 95 367 167 545 49 120
170 349 258 485 66 103 214 299 272 361 242 258 407 400 630 544 420 270 922
445 1386 481 44 3 81 8 83 10 5 5 472 -3 506 -9z"/>
<path d="M5017 6274 c-1 -1 -60 -4 -132 -8 -71 -4 -148 -9 -170 -12 -148 -19
-292 -49 -381 -79 -220 -73 -322 -180 -353 -370 -10 -56 -17 -435 -12 -587 l1
-26 553 -1 c303 0 561 0 573 0 18 -1 20 -7 21 -71 0 -43 -4 -70 -11 -71 -6 0
-387 -2 -846 -3 -459 -2 -851 -7 -870 -11 -260 -53 -460 -232 -547 -488 -20
-60 -50 -195 -88 -397 -19 -101 -13 -460 9 -587 3 -18 8 -48 12 -65 78 -463
242 -705 519 -769 52 -13 524 -21 526 -10 1 3 2 141 4 306 2 321 9 374 60 492
93 211 312 384 535 423 42 7 294 12 715 14 358 1 664 6 680 10 207 50 374 215
431 426 15 58 17 128 19 670 1 453 -2 622 -12 674 -40 218 -232 407 -483 475
-132 36 -395 63 -628 65 -68 1 -124 1 -125 0z m-461 -373 c167 -76 171 -313 7
-392 -123 -59 -273 10 -300 139 -23 106 24 204 122 255 41 22 121 21 171 -2z"/>
<path d="M6409 4777 c-1 -150 -2 -283 -4 -297 -19 -183 -85 -320 -220 -455
-102 -103 -198 -160 -325 -194 -71 -18 -109 -20 -717 -20 -353 -1 -663 -5
-690 -10 -118 -23 -206 -67 -293 -148 -70 -64 -117 -133 -156 -228 l-29 -70
-3 -639 c-2 -439 1 -655 8 -692 54 -261 327 -443 800 -535 174 -34 492 -34
675 1 476 90 740 266 797 530 10 46 14 135 13 305 l0 240 -572 3 c-448 2 -573
5 -574 15 -4 40 0 119 5 125 4 3 413 6 909 7 705 1 912 4 947 14 197 57 313
206 426 547 76 232 88 306 88 564 0 250 -14 361 -80 617 -74 291 -183 463
-342 538 -90 43 -134 48 -404 51 l-258 2 -1 -271z m561 123 c140 -52 239 -187
304 -416 30 -107 72 -306 81 -389 3 -33 8 -73 10 -90 6 -45 6 -295 0 -335 -22
-142 -31 -187 -57 -275 -94 -319 -200 -487 -334 -531 -57 -18 -97 -19 -1017
-20 -526 0 -959 -3 -962 -6 -6 -6 -8 -389 -1 -395 3 -3 261 -5 573 -5 l568 0
-1 -186 c-1 -202 -8 -243 -52 -312 -94 -145 -268 -238 -565 -304 -169 -37
-178 -38 -377 -41 -230 -4 -382 18 -589 85 -235 75 -380 188 -433 336 -20 57
-21 76 -21 666 0 598 0 607 22 675 42 128 143 240 268 293 l58 25 580 2 c708
2 787 5 885 34 214 62 404 212 512 404 49 87 73 150 105 280 3 11 7 128 8 260
2 132 4 245 4 252 1 17 383 10 431 -7z"/>
<path d="M5697 2266 c-93 -33 -148 -112 -148 -210 0 -134 111 -229 249 -213
105 12 183 112 177 226 -4 95 -61 169 -149 196 -60 18 -80 18 -129 1z"/>
</g>
</svg>
