<?xml version="1.0" standalone="no"?>
<!DOCTYPE svg PUBLIC "-//W3C//DTD SVG 20010904//EN"
 "http://www.w3.org/TR/2001/REC-SVG-20010904/DTD/svg10.dtd">
<svg version="1.0" xmlns="http://www.w3.org/2000/svg"
 width="539.000000pt" height="539.000000pt" viewBox="0 0 539.000000 539.000000"
 preserveAspectRatio="xMidYMid meet">
<metadata>
Created by potrace 1.11, written by Peter Selinger 2001-2013
</metadata>
<g transform="translate(0.000000,539.000000) scale(0.100000,-0.100000)"
fill="#000000" stroke="none">
<path d="M0 4255 c0 -1078 1 -1135 18 -1126 26 13 4183 2226 4217 2244 28 15
-136 16 -2102 17 l-2133 0 0 -1135z"/>
<path d="M3860 4841 l-1025 -546 -3 -388 -2 -387 31 0 c104 0 361 -75 515
-150 437 -212 744 -601 861 -1090 37 -155 44 -436 15 -606 -59 -344 -219 -644
-473 -889 -545 -524 -1370 -591 -2002 -163 -126 85 -334 294 -416 418 -367
553 -367 1248 -1 1790 197 291 489 512 819 620 101 33 271 70 320 70 l31 0 0
306 0 305 -72 -38 c-40 -21 -610 -324 -1265 -673 l-1193 -635 0 -1392 0 -1393
2695 0 2695 0 0 2695 0 2695 -252 -1 -253 -1 -1025 -547z"/>
<path d="M2440 3406 c-626 -112 -1099 -572 -1222 -1188 -32 -160 -31 -416 1
-568 61 -287 185 -529 376 -729 206 -216 442 -357 714 -426 279 -70 589 -58
861 35 320 109 628 366 800 666 242 423 262 939 54 1373 -205 430 -576 722
-1044 826 -102 23 -436 29 -540 11z m415 -306 c191 -21 294 -76 350 -185 l30
-59 0 -330 c0 -324 0 -332 -23 -381 -28 -61 -62 -98 -122 -133 l-45 -27 -360
-5 -360 -5 -57 -27 c-79 -37 -142 -98 -181 -177 -32 -65 -32 -67 -36 -234 l-3
-169 -127 4 c-104 4 -135 8 -179 28 -94 41 -151 130 -193 300 -32 132 -33 343
-1 478 38 163 97 247 212 301 l55 26 433 3 432 3 0 34 0 35 -280 0 -280 0 0
148 c0 179 12 225 73 277 96 82 393 125 662 95z m758 -586 c95 -32 166 -135
206 -299 50 -205 52 -370 6 -530 -50 -172 -109 -265 -192 -307 -48 -23 -50
-23 -490 -26 -266 -2 -443 -7 -443 -12 0 -6 114 -11 278 -12 l277 -3 3 -129
c4 -195 -27 -268 -145 -344 -109 -70 -338 -119 -493 -107 -101 8 -250 44 -325
79 -71 32 -143 100 -171 161 -23 49 -24 55 -24 372 0 372 4 394 86 478 86 89
89 89 494 95 l355 5 56 28 c63 30 125 92 161 159 21 40 23 57 26 226 l4 182
142 0 c104 0 155 -4 189 -16z"/>
<path d="M2297 2906 c-71 -66 -30 -176 66 -176 48 0 81 23 98 68 35 92 -92
175 -164 108z"/>
<path d="M3328 2339 c-4 -129 -8 -163 -27 -212 -30 -76 -114 -167 -189 -204
l-57 -28 -355 -5 c-396 -6 -399 -7 -473 -78 -82 -78 -82 -78 -85 -427 -2 -219
0 -322 9 -352 37 -135 226 -228 484 -240 255 -12 485 70 552 196 20 39 23 58
23 168 l0 123 -275 0 -275 0 0 60 0 60 457 0 c443 0 458 1 500 21 107 52 194
275 194 499 0 215 -53 412 -135 498 -53 57 -78 65 -217 70 l-127 4 -4 -153z
m-246 -1196 c49 -47 46 -133 -7 -183 -32 -30 -101 -38 -143 -16 -68 35 -86
139 -34 197 48 54 128 55 184 2z"/>
<path d="M2935 1115 c-35 -34 -33 -78 5 -117 26 -25 36 -29 63 -24 43 8 67 39
67 86 0 72 -85 106 -135 55z"/>
</g>
</svg>
